<?xml version="1.0" encoding="utf-8"?>
<!-- Generator: Adobe Illustrator 21.0.0, SVG Export Plug-In . SVG Version: 6.00 Build 0)  -->
<svg version="1.1" id="Layer_1" xmlns="http://www.w3.org/2000/svg" xmlns:xlink="http://www.w3.org/1999/xlink" x="0px" y="0px"
	 viewBox="0 0 325 325" style="enable-background:new 0 0 325 325;" xml:space="preserve">
<style type="text/css">
	.st0{stroke:#FFFFFF;stroke-width:2;stroke-miterlimit:10;}
	.st1{fill:#FFFFFF;stroke:#FFFFFF;stroke-width:2;stroke-miterlimit:10;}
</style>
<g>
	<path class="st0" d="M96.3,310.5c-0.1-0.1-0.6-0.5-0.9-0.9c-21.9-21.9-43.9-43.8-65.8-65.9c-18.5-18.6-18.9-47.9-0.8-66.3
		c9.8-10,20.2-19.4,30.3-29c7.2-6.9,14.4-13.8,21.8-20.9c-2.9-2-3.2-5-3.2-8.1c0-6.3,0.2-12.6,0.3-18.9c0.1-5.9,3.3-9.7,10-5.1
		c0.7-4.1,1-8.4,2.1-12.4c6-22.8,18-41.5,37.7-54.8c20.2-13.7,42.5-12.5,61.1,3.2c17.9,15.1,28.5,34.6,32.5,57.7
		c0.4,2.1,0.4,4.3,0.6,6.5c1.2-0.6,2.3-1.4,3.5-1.7c3-1,5.4,0.2,6.1,3.2c0.6,2.4,0.8,4.9,0.9,7.4c0.1,5.3,0.2,10.6,0.1,15.8
		c0,2.7-0.4,5.5-2.1,6.7c3.7,4.1,7.2,8.5,11.2,12.4c12.9,12.5,26.1,24.8,39,37.3c19.1,18.7,19.1,48.3,0.2,67.2
		c-21.7,21.7-43.3,43.3-65,65c-0.7,0.7-1.3,1.4-1.7,1.9c-17.2-17.2-34.2-34.2-51.3-51.3c15.7-15.7,31.6-31.6,48-48
		c-2.5-2.2-4.9-4.2-6.9-6c3.1-4.9,6.3-9.2,8.5-13.9c10.6-22.3,9-44-4.6-64.6c-1.1-1.6-1.1-2.6,0-4.2c3.2-4.5,5.8-9.4,6.9-14.9
		c2-9.7-2.9-17.9-12.9-21.8c-7.2-2.8-14.6-3-22-1.6c-7.9,1.5-15.6,3.9-23.4,5.8c-1,0.2-2.2,0.3-3.2-0.1c-9.6-3.4-19.4-5.9-29.6-6.4
		c-6.8-0.3-13.4,0.5-19.4,4.1c-8.3,5-11.6,12.8-8.5,21.9c1.6,4.8,4.4,9.1,6.8,13.6c0.6,1.1,1,1.8,0.1,3.1
		c-16.4,24.7-15.3,53.4,2.8,76.7c0.3,0.4,0.6,0.9,1.2,1.7c-2.4,2-4.7,4-7.1,6c16.4,16.4,32.3,32.3,48,48
		C130.5,276.3,113.5,293.3,96.3,310.5z"/>
	<path class="st0" d="M200.2,125c10.3,12.5,14.8,26.7,13.7,42.7c-1.4,20.2-15.4,46.1-45.2,51.4c-12.4,2.2-24.5,1.5-36.4-2.6
		c-18.2-6.4-28.9-19.9-33.9-37.9c-5.1-18.1-1.7-35.1,9.3-50.5c0.6-0.9,1.3-1.8,2-2.8c-1.2-1.7-2.7-3.2-3.6-5
		c-2.1-3.9-4.5-7.8-5.9-12c-2.4-7.5,0.5-13.3,7.5-16.9c5.5-2.8,11.4-3,17.3-2.6c9.6,0.7,18.8,3.2,27.9,6.4c1.1,0.4,2.7,0.4,3.8,0
		c10.7-3.7,21.5-6.7,32.9-6.5c4.7,0.1,9.2,0.8,13.3,3.3c6.3,3.8,8.8,9.4,6.4,16.3c-1.6,4.5-4.3,8.7-6.5,12.9
		C202.3,122.5,201.2,123.6,200.2,125z M155.8,213.9c9.5-0.1,19.5-2.3,28.5-7.9c7.4-4.6,12.7-10.7,13.9-19.7
		c1.4-9.6-0.4-18.8-3.2-27.8c-1.7-5.7-5-10.9-4.4-17.2c0-0.1,0-0.2-0.1-0.2c-2.6-13.1-16.2-21-29.5-16.4c-4.2,1.5-7.5,1.5-11.8,0
		c-14.7-5.1-30.4,5.1-30,21c0,0.9-0.3,1.9-0.7,2.7c-3.8,8.5-6.2,17.2-7.3,26.4c-1.8,15.2,4.1,26.2,17.6,33
		C137.1,212.1,145.8,213.9,155.8,213.9z M142.9,105.5c0-3.7-0.9-5.1-4.4-6.1c-2.4-0.7-4.9-1.3-7.4-1.5c-1.2-0.1-2.7,0.5-3.5,1.3
		c-3,2.7-3.5,7.3-1.5,10.8c2,3.5,6.2,5.3,10,4.3C140.2,113.2,142.9,109.6,142.9,105.5z M175.9,114.4c5,0,9-3.8,9.2-8.8
		c0.2-5-3.2-8.3-8.1-7.6c-2.3,0.3-4.6,0.9-6.7,1.8c-1.2,0.5-2.5,1.8-2.9,3.1C165.5,108.6,169.8,114.4,175.9,114.4z"/>
	<path class="st1" d="M155.8,213.9c-10.1-0.1-18.8-1.9-26.9-5.9c-13.6-6.8-19.4-17.8-17.6-33c1.1-9.2,3.5-18,7.3-26.4
		c0.4-0.9,0.7-1.8,0.7-2.7c-0.4-16,15.3-26.1,30-21c4.2,1.5,7.6,1.4,11.8,0c13.4-4.6,27,3.2,29.5,16.4c0,0.1,0.1,0.2,0.1,0.2
		c-0.7,6.3,2.6,11.5,4.4,17.2c2.8,9.1,4.6,18.3,3.2,27.8c-1.3,8.9-6.6,15.1-13.9,19.7C175.3,211.7,165.4,213.8,155.8,213.9z
		 M128,193c0.5,0.1,0.9,0.2,1.4,0.3c10,1.7,20,2.2,30.1,1.6c7-0.4,13.5-2.4,19.1-6.7c2.9-2.2,4.8-5.1,5.7-8.6c0.8-3,0.9-6.1-0.7-8.9
		c-2.7,0.7-2.4,0.8-3.4,3.1c-1.1,2.6-2.5,5.2-4.3,7.3c-3.5,4.1-8.5,6.1-13.7,6.7c-7.4,0.9-14.9,1.4-22.4,1.9c-3.9,0.2-7.7,0-11.7,0
		C128,191.1,128,192,128,193z M163.5,152.9c3.7-0.3,7.7-1,10.2-4.7c2.5-3.7,0.6-7.8-3.8-8.3c-4.5-0.6-7.8,1.7-10.5,4.9
		c-1.4,1.7-2.8,3.6-1.8,5.8C158.6,153,161,152.8,163.5,152.9z M147.5,152.9c0.7-0.1,1.7-0.1,2.6-0.3c2.6-0.6,3.5-2.3,2.7-4.9
		c-1.3-4.1-6.7-8-11-8c-2.5,0-4.8,0.7-5.8,3.3c-1,2.5,0,4.7,1.9,6.5C140.5,152.1,143.8,152.7,147.5,152.9z"/>
	<path class="st1" d="M142.9,105.5c0,4.2-2.7,7.7-6.8,8.8c-3.8,1-8.1-0.8-10-4.3c-2-3.5-1.5-8,1.5-10.8c0.9-0.8,2.4-1.4,3.5-1.3
		c2.5,0.2,5,0.8,7.4,1.5C142,100.4,142.9,101.8,142.9,105.5z"/>
	<path class="st1" d="M175.9,114.4c-6,0-10.4-5.9-8.5-11.6c0.4-1.2,1.7-2.5,2.9-3.1c2.1-0.9,4.4-1.4,6.7-1.8
		c4.9-0.7,8.3,2.6,8.1,7.6C184.9,110.7,180.9,114.5,175.9,114.4z"/>
	<path class="st0" d="M128,193c0-1,0-1.8,0-3.2c4,0,7.9,0.2,11.7,0c7.5-0.5,15-1,22.4-1.9c5.2-0.7,10.1-2.7,13.7-6.7
		c1.8-2.1,3.2-4.7,4.3-7.3c1-2.3,0.8-2.4,3.4-3.1c1.7,2.8,1.5,5.9,0.7,8.9c-0.9,3.5-2.9,6.4-5.7,8.6c-5.6,4.4-12.2,6.3-19.1,6.7
		c-10.1,0.6-20.1,0.1-30.1-1.6C128.9,193.2,128.5,193.1,128,193z"/>
	<path class="st0" d="M163.5,152.9c-2.5-0.1-4.9,0.1-6-2.2c-1-2.3,0.4-4.2,1.8-5.8c2.7-3.3,6-5.5,10.5-4.9c4.4,0.6,6.3,4.6,3.8,8.3
		C171.2,151.9,167.2,152.5,163.5,152.9z"/>
	<path class="st0" d="M147.5,152.9c-3.7-0.2-7.1-0.8-9.7-3.4c-1.8-1.8-2.9-3.9-1.9-6.5c1-2.6,3.3-3.3,5.8-3.3c4.3-0.1,9.7,3.9,11,8
		c0.8,2.5-0.1,4.2-2.7,4.9C149.2,152.8,148.2,152.8,147.5,152.9z"/>
</g>
</svg>
